<?xml version="1.0" encoding="utf-8"?>
<!-- Generator: Adobe Illustrator 19.0.0, SVG Export Plug-In . SVG Version: 6.00 Build 0)  -->
<svg version="1.1" id="Layer_1" xmlns="http://www.w3.org/2000/svg" xmlns:xlink="http://www.w3.org/1999/xlink" x="0px" y="0px"
	 viewBox="-359 191 240 180" style="enable-background:new -359 191 240 180;" xml:space="preserve">
<style type="text/css">
	.st0{fill:none;}
	.st1{fill:#0F303F;}
	.st2{fill:#F0F0F0;}
	.st3{fill:#F7F7F7;}
	.st4{fill:#D6D6D6;}
	.st5{fill:#DE4747;}
	.st6{fill:#FFC75E;}
	.st7{fill:#FFD680;}
	.st8{fill:#FFE8BA;}
	.st9{fill:#423D30;}
	.st10{fill:#E0DCDB;}
	.st11{fill:#B8B5B3;}
</style>
<g id="XMLID_1_">
	<rect id="XMLID_2288_" x="-359" y="191" class="st0" width="240" height="180"/>
	<g id="XMLID_1363_">
		<g id="XMLID_2180_">
			<g id="XMLID_2181_">
				<g id="XMLID_2216_">
					<g id="XMLID_2217_">
						<path id="XMLID_2218_" class="st1" d="M-301.5,211h108.1c12.7,0,23,10.3,23,23v10.2V328c0,12.7-10.3,23-23,23h-108.1
							c-12.7,0-23-10.3-23-23v-83.7V234C-324.5,221.3-314.2,211-301.5,211z"/>
					</g>
				</g>
				<g id="XMLID_2207_">
					<g id="XMLID_2208_">
						<path id="XMLID_2209_" class="st2" d="M-301.5,232.7h108.1c6.4,0,11.5,5.2,11.5,11.5V328c0,6.4-5.2,11.5-11.5,11.5h-108.1
							c-6.3,0-11.5-5.2-11.5-11.5v-83.7C-313,237.9-307.8,232.7-301.5,232.7z"/>
					</g>
				</g>
				<g id="XMLID_994_">
					<g id="XMLID_2213_">
						<g id="XMLID_2214_">
							<path id="XMLID_2215_" class="st3" d="M-233.1,228.6c-3.4,0-6.3-2.5-6.7-5.9c-0.1-0.3-0.1-0.6-0.1-1c0-0.1,0-0.3,0-0.4
								c0.2-3.6,3.2-6.4,6.8-6.4s6.5,2.7,6.8,6.2c0,0.2,0,0.4,0,0.6s0,0.5,0,0.7C-226.6,226-229.5,228.6-233.1,228.6z"/>
						</g>
					</g>
					<g id="XMLID_2210_">
						<g id="XMLID_2211_">
							<path id="XMLID_2212_" class="st3" d="M-215.4,228.6c-3.5,0-6.4-2.7-6.8-6.1c0-0.2,0-0.5,0-0.7c0-0.2,0-0.4,0-0.6
								c0.3-3.5,3.2-6.2,6.8-6.2s6.5,2.7,6.8,6.2c0,0.2,0,0.4,0,0.6c0,0.2,0,0.5,0,0.7C-208.9,226-211.9,228.6-215.4,228.6z"/>
						</g>
					</g>
					<g id="XMLID_2204_">
						<g id="XMLID_2205_">
							<path id="XMLID_2206_" class="st3" d="M-197.7,228.6c-3.5,0-6.4-2.7-6.8-6.1c0-0.2,0-0.5,0-0.7c0-0.2,0-0.4,0-0.6
								c0.3-3.5,3.2-6.2,6.8-6.2s6.5,2.7,6.8,6.2c0,0.2,0,0.4,0,0.6c0,0.2,0,0.5,0,0.7C-191.3,226-194.2,228.6-197.7,228.6z"/>
						</g>
					</g>
				</g>
				<g id="XMLID_2182_">
					<g id="XMLID_2201_">
						<g id="XMLID_2202_">
							<rect id="XMLID_2203_" x="-254.1" y="253.8" class="st4" width="59.4" height="6.8"/>
						</g>
					</g>
					<g id="XMLID_2198_">
						<g id="XMLID_2199_">
							<rect id="XMLID_2200_" x="-254.1" y="265.7" class="st4" width="59.4" height="6.8"/>
						</g>
					</g>
					<g id="XMLID_2195_">
						<g id="XMLID_2196_">
							<rect id="XMLID_2197_" x="-254.1" y="277.5" class="st4" width="59.4" height="6.8"/>
						</g>
					</g>
					<g id="XMLID_2192_">
						<g id="XMLID_2193_">
							<rect id="XMLID_2194_" x="-254.1" y="289.4" class="st4" width="59.4" height="6.8"/>
						</g>
					</g>
					<g id="XMLID_2189_">
						<g id="XMLID_2190_">
							<rect id="XMLID_2191_" x="-300" y="301.3" class="st4" width="105.2" height="6.8"/>
						</g>
					</g>
					<g id="XMLID_2186_">
						<g id="XMLID_2187_">
							<rect id="XMLID_2188_" x="-300" y="313.2" class="st4" width="105.2" height="6.8"/>
						</g>
					</g>
					<g id="XMLID_2183_">
						<g id="XMLID_2184_">
							<rect id="XMLID_2185_" x="-300" y="253.8" class="st4" width="39.8" height="42.4"/>
						</g>
					</g>
				</g>
			</g>
		</g>
		<g id="XMLID_2179_">
			<g id="XMLID_2284_">
				<g id="XMLID_2285_">
					<g id="XMLID_2349_">
						<g id="XMLID_2350_">
							<path id="XMLID_2351_" class="st5" d="M-154.7,294.4c2.2-2.2,1.4-6.5-1.7-9.6l-5.6-5.6c-3.1-3.1-7.4-3.9-9.6-1.7
								c-2.2,2.2-1.4,6.5,1.7,9.6l5.6,5.6C-161.2,295.8-156.9,296.6-154.7,294.4z"/>
						</g>
					</g>
					<g id="XMLID_2346_">
						<g id="XMLID_2347_">
							<polygon id="XMLID_2348_" class="st6" points="-185.9,325.6 -202.7,308.8 -186.2,292.2 -169.3,309 							"/>
						</g>
					</g>
					<g id="XMLID_2343_">
						<g id="XMLID_2344_">
							<polygon id="XMLID_2345_" class="st7" points="-190.3,321.2 -198.3,313.2 -181.8,296.6 -173.8,304.6 							"/>
						</g>
					</g>
					<g id="XMLID_2336_">
						<g id="XMLID_2340_">
							<g id="XMLID_2341_">
								<polygon id="XMLID_2342_" class="st8" points="-210.2,333 -202.7,308.8 -185.9,325.6 								"/>
							</g>
						</g>
						<g id="XMLID_2337_">
							<g id="XMLID_2338_">
								<polygon id="XMLID_2339_" class="st9" points="-210.2,333 -207.8,325.3 -202.4,330.7 								"/>
							</g>
						</g>
					</g>
					<g id="XMLID_2333_">
						<g id="XMLID_2334_">
							<polygon id="XMLID_2335_" class="st10" points="-156.4,296 -173.2,279.2 -186.2,292.2 -169.3,309 							"/>
						</g>
					</g>
					<g id="XMLID_2330_">
						<g id="XMLID_2331_">
							<polygon id="XMLID_2332_" class="st11" points="-164.2,303.8 -181,287 -182.8,288.8 -165.9,305.6 							"/>
						</g>
					</g>
					<g id="XMLID_2286_">
						<g id="XMLID_2287_">
							<polygon id="XMLID_2329_" class="st11" points="-159.8,299.5 -176.6,282.6 -178.4,284.4 -161.6,301.2 							"/>
						</g>
					</g>
				</g>
			</g>
		</g>
	</g>
</g>
</svg>
