<svg height="60" width="60" xmlns="http://www.w3.org/2000/svg"><g fill="none" fill-rule="evenodd"><circle cx="30" cy="30" fill="#fff" r="30"/><path d="M38.992 21.024c-9.214-.77-25.388 17.169-23.896 23.02 1.492 5.85 23.492 8.522 30.46 2.72s2.65-24.97-6.564-25.74z" fill="#ffdf7e"/><g stroke="#2a2f54" stroke-linecap="round" stroke-linejoin="round" stroke-width="2"><path d="M12.5 25h13a4 4 0 0 1 4 4v7.075a4 4 0 0 1-4 4H19l-3.585 3.503a1.5 1.5 0 0 1-2.548-1.072v-2.43H12.5a4 4 0 0 1-4-4V29a4 4 0 0 1 4-4z"/><path d="M34.251 32.665h2.794l3.565 3.11a1.5 1.5 0 0 0 2.486-1.13V31.83H44a4 4 0 0 0 4-4V18a4 4 0 0 0-4-4H27a4 4 0 0 0-4 4v2.43"/></g></g></svg>