<svg height="360" width="360" xmlns="http://www.w3.org/2000/svg" xmlns:xlink="http://www.w3.org/1999/xlink"><defs><circle id="b" cx="50" cy="50" r="50"/><filter id="a" height="114%" width="114%" x="-7%" y="-5%"><feOffset dy="2" in="SourceAlpha" result="shadowOffsetOuter1"/><feGaussianBlur in="shadowOffsetOuter1" result="shadowBlurOuter1" stdDeviation="2"/><feColorMatrix in="shadowBlurOuter1" values="0 0 0 0 0 0 0 0 0 0 0 0 0 0 0 0 0 0 0.1 0"/></filter><circle id="d" cx="50" cy="50" r="50"/><filter id="c" height="114%" width="114%" x="-7%" y="-5%"><feOffset dy="2" in="SourceAlpha" result="shadowOffsetOuter1"/><feGaussianBlur in="shadowOffsetOuter1" result="shadowBlurOuter1" stdDeviation="2"/><feColorMatrix in="shadowBlurOuter1" values="0 0 0 0 0 0 0 0 0 0 0 0 0 0 0 0 0 0 0.1 0"/></filter><circle id="f" cx="50" cy="50" r="50"/><filter id="e" height="114%" width="114%" x="-7%" y="-5%"><feOffset dy="2" in="SourceAlpha" result="shadowOffsetOuter1"/><feGaussianBlur in="shadowOffsetOuter1" result="shadowBlurOuter1" stdDeviation="2"/><feColorMatrix in="shadowBlurOuter1" values="0 0 0 0 0 0 0 0 0 0 0 0 0 0 0 0 0 0 0.1 0"/></filter></defs><g fill="none" fill-rule="evenodd"><path d="M66.464 139.074C80.987 93.117 235.47 51.718 270.393 90.447s-5.852 158.81-56.78 175.02c-50.928 16.21-161.672-80.436-147.15-126.393z" fill="#f5f7fd"/><g transform="translate(217 67)"><use fill="#000" filter="url(#a)" xlink:href="#b"/><use fill="#fff" xlink:href="#b"/></g><g transform="translate(235 85)"><circle cx="32" cy="32" r="32"/><path d="M37.874 20.872C27.469 23.761 9.88 39.2 13.373 51.252c3.493 12.05 31.157 7.001 36.341-1.84 5.184-8.84-1.436-31.429-11.84-28.54z" fill="#ffdf7e"/><g stroke="#2a2f54" stroke-linecap="round" stroke-width="2.5"><path d="M53.326 31.188c0-12.591-9.703-20.751-20.532-20.751-7.984 0-14.48 2.967-18.414 9.767"/><path d="M60.27 21.594c-3.715 6.374-6.118 9.57-7.208 9.587-1.091.018-4.265-2.037-9.522-6.164" stroke-linejoin="round"/><g><path d="M10.899 32.09c0 12.477 9.032 20.955 21.103 20.955 7.295 0 12.905-3.171 16.377-7.994"/><path d="M3.982 41.562c3.359-6.6 5.718-9.908 7.078-9.923 1.36-.015 4.559 2.184 9.599 6.598" stroke-linejoin="round"/></g></g></g><g transform="translate(44 76)"><use fill="#000" filter="url(#c)" xlink:href="#d"/><use fill="#fff" xlink:href="#d"/></g><g transform="translate(62 94)"><circle cx="32" cy="32" r="32"/><path d="M27.645 33.33c-2.783 4.69-3.593 19.453 3.242 23.738 6.834 4.286 18.692.342 21.19-5.317 2.498-5.66-7.295-16.4-10.712-18.421-3.416-2.022-10.936-4.69-13.72 0zm2.251-25.674c-4.465 3.899-3.552 17.622 0 20.043 3.552 2.422 11.466-5.184 11.048-11.642-.418-6.458-6.582-12.3-11.048-8.4z" fill="#ffdf7e"/><g stroke="#2a2f54" stroke-linecap="round" stroke-width="2.5"><g transform="translate(8.96 8.96)"><ellipse cx="19.2" cy="9.629" rx="9.6" ry="9.629"/><path d="M38.4 44.294c0-10.636-8.596-19.258-19.2-19.258S0 33.658 0 44.294"/></g><path d="M53.76 18.372v14.456M46.532 25.6h14.456"/></g></g><g transform="translate(140 197)"><use fill="#000" filter="url(#e)" xlink:href="#f"/><use fill="#fff" xlink:href="#f"/></g><g transform="translate(158 215)"><circle cx="32" cy="32" r="32"/><path d="M43.07 20.674c-10.72-.985-30.893 18.813-29.157 26.302S45.893 58.707 54 51.28c8.106-7.428-.21-29.62-10.93-30.606z" fill="#ffdf7e"/><g stroke="#2a2f54" stroke-linecap="round" stroke-linejoin="round" stroke-width="2.5"><path d="M9.6 25.6h16.64a5.12 5.12 0 0 1 5.12 5.12v9.056a5.12 5.12 0 0 1-5.12 5.12h-8.32l-4.588 4.484a1.92 1.92 0 0 1-3.262-1.373v-3.11H9.6a5.12 5.12 0 0 1-5.12-5.12V30.72A5.12 5.12 0 0 1 9.6 25.6z"/><path d="M37.442 35.411h3.575l4.563 3.982a1.92 1.92 0 0 0 3.183-1.447V34.34h1.157a5.12 5.12 0 0 0 5.12-5.12V16.64a5.12 5.12 0 0 0-5.12-5.12H28.16a5.12 5.12 0 0 0-5.12 5.12v3.11"/></g></g><g stroke="#c3c9de" stroke-linecap="round" stroke-width="2.5"><path d="M212.781 78.793c-10.227-7.406-21.09-11.531-32.592-12.376-11.502-.846-22.627 1.243-33.376 6.266"/><path d="M204.954 79.638c4.92.245 7.624.068 8.111-.532.487-.6-.096-3.034-1.75-7.302" stroke-linejoin="round"/><path d="M259.186 235.427c9.897-8.224 16.466-16.922 19.706-26.094 3.24-9.173 3.918-18.874 2.034-29.104"/><path d="M258.363 228.902c-.82 4.357-.996 6.813-.527 7.37.47.556 3.103.418 7.9-.414" stroke-linejoin="round"/><g><path d="M94.868 190.57c-.062 14.722 2.633 26.492 8.085 35.313 5.453 8.821 12.638 15.498 21.556 20.03"/><path d="M100.124 194.88c-2.822-3.403-4.618-5.111-5.39-5.126-.773-.014-2.453 1.853-5.039 5.602" stroke-linejoin="round"/></g></g></g></svg>