<svg height="60" width="60" xmlns="http://www.w3.org/2000/svg"><g fill="none" fill-rule="evenodd"><circle cx="30" cy="30" fill="#fff" r="30"/><path d="M26.598 31.039c-2.175 3.665-2.807 15.198 2.532 18.546 5.34 3.348 14.603.267 16.555-4.155 1.952-4.421-5.7-12.811-8.368-14.391-2.67-1.58-8.544-3.665-10.72 0zm1.758-20.058c-3.488 3.046-2.774 13.767 0 15.66s8.958-4.05 8.632-9.096c-.327-5.046-5.143-9.61-8.632-6.564z" fill="#ffdf7e"/><g stroke="#2a2f54" stroke-linecap="round" stroke-width="2"><g transform="translate(12 12)"><ellipse cx="15" cy="7.523" rx="7.5" ry="7.523"/><path d="M30 34.605c0-8.31-6.716-15.046-15-15.046-8.284 0-15 6.736-15 15.046"/></g><path d="M47 19.353v11.294M41.353 25h11.294"/></g></g></svg>