<svg width="620" height="500" xmlns="http://www.w3.org/2000/svg"><g transform="translate(63 67)" fill="none" fill-rule="evenodd"><path d="M385.21 46.337c-5.373 3.556-10.754 8.317-18.484 12.21-16.075 8.096-24.563 1.053-36.816 3.638-8.168 1.723-17.403 8.08-27.703 19.069L405.39 78.96c37.391 79.261 32.104 205.297-21.291 232.241-72.335 36.5-332.098-10.906-345.441-124.26C25.314 73.588 258.995-18.78 349.738 18.783c13.491 5.585 25.33 15.167 35.472 27.554zM155.05 209.773l91.675-2.444c-3.164-17.219-8.795-26.593-16.893-28.122-12.147-2.293-16.45 6.795-28.09 13.032-11.638 6.236-17.758.861-26.622 2.868-5.909 1.338-12.599 6.227-20.07 14.666z" fill="#F5F6FF"/><g transform="translate(247 102)"><path d="M121.684 231.847c-12.859 5.349-11.712 28.846 2.58 30.422 14.291 1.576 46.218-1.315 61.068-6.694 14.85-5.38 7.723-22.032.859-23.728-6.865-1.696-51.648-5.349-64.507 0z" fill="#E7C4FF"/><path d="M183.389 231.979c-10.9-5.327-21.56-8.93-36.701 0-15.142 8.929-24.34 24.017-13.232 29.446 11.108 5.429 45.483-3.427 54.993-9.036 9.51-5.608 5.839-15.084-5.06-20.41z" fill="#DAA4FF"/><path d="M182.228 241.167c-14.155 1.135-49.065-.596-49.065-5.479 0-3.255 18.095-4.548 54.284-3.88 5.957 5.483 4.217 8.603-5.22 9.36z" fill="#C27AF3"/><ellipse fill="#000" transform="scale(-1 1) rotate(6 0 -2016.61)" cx="108.327" cy="50.401" rx="1.59" ry="1.588"/><path d="M122.386 119.656c-28.23-15.21-43.981-23.995-47.254-26.358-4.909-3.544-20.195-45.988-24.093-48.04-3.898-2.052-25.305-2-25.305 3.466 0 5.465 19.851 43.616 27.26 57.216 4.94 9.067 22.694 22.08 53.265 39.038l16.127-25.322z" fill="#FFF"/><path d="M111.776 121.674c-16.44-11.885-49.153-12.497-54.748-10.26-5.595 2.236 15.058 13.59 26.226 21.663 11.167 8.073 16.693 17.352 23.81 14.507 7.12-2.846 21.153-14.026 4.712-25.91z" fill="#DCE8FF"/><path d="M122.386 119.656c-28.23-15.21-43.981-23.995-47.254-26.358-4.909-3.544-20.195-45.988-24.093-48.04-3.898-2.052-25.305-2-25.305 3.466 0 5.465 19.851 43.616 27.26 57.216 4.94 9.067 22.694 22.08 53.265 39.038l16.127-25.322z" stroke="#2A2F54" stroke-width="2"/><path d="M41.161 35.62c-.66-8.887-2.386-14.53-5.18-16.926-2.794-2.396-7.204-5.14-13.23-8.232l-12.024-3.36c-1.39 1.806-1.383 3.625.023 5.457 2.11 2.749 2.758 1.614 2.858 2.555.1.94-4.662 1.029-6.76 4.205-2.097 3.177-2.96 4.37.684 6.417 3.644 2.047 4.884 4.543 8.598 4.163 3.714-.38 3.744-1.99 4.808-1.694 1.063.298-.133 1.677 2.447 6.039s4.382 4.484 5.416 6.418c.225.42 1.958 1.51 2.608 5.443.65 3.932 12.21.432 13.837-1.572 1.084-1.336-.278-4.307-4.085-8.912z" fill="#E1AEAA"/><path d="M14.95 16.458c-2.453-1.038-5.2 1.036-4.215 4.29.986 3.253 5.58 5.643 7.452 6.395 1.872.753 3.802-.394 3.637-1.94-.164-1.545-4.42-7.708-6.874-8.745z" fill="#CC888C"/><path d="M16.298 15.948c-2.832-.765-4.496-1.952-4.993-3.563-.496-1.611-.759-3.111-.787-4.5 8.016 2.383 13.578 4.43 16.686 6.14.851.469 3.035 1.817 6.552 4.045 2.91.53 4.124 5.79 5.452 10.48l6.425 15.7" stroke="#2A2F54" stroke-width="2" stroke-linecap="round" stroke-linejoin="round"/><path d="M31.317 45.056c-.005-.068-.065-2.36-1.848-4.614-3.338-4.223-5.85-5.087-6.246-10.088-.396-5.002-1.162-5.195-1.887-6.12-6.754-8.596-3.304-12.597-.912-12.754.673 2.183 3.811 7.09 4.966 8.97 1.156 1.88 3.096 1.966 4.285 1.092" stroke="#2A2F54" stroke-width="2" stroke-linecap="round" stroke-linejoin="round"/><path d="M11.684 17.833c-4.276 1.773-5.928 3.793-4.956 6.06 1.042 2.433 3.508 2.344 8.363 5.32 1.159.711 2.632.442 4.418-.806" stroke="#2A2F54" stroke-width="2" stroke-linecap="round"/><path d="M41.949 45.721c-1.847.888-3.296 1.437-4.348 1.645-1.052.21-2.529.242-4.43.1" stroke="#2A2F54" stroke-width="2" stroke-linecap="round"/><path d="M141.159 104.422c16.588 11.074 17.731 38.781 30.838 65.274 13.107 26.494 23.28 56.47 19.831 58.304-1.805.96-18.08 7.468-38.96 6.933-19.019-.488-37.713-3.807-39.534-5.656-3.82-3.88 3.799-12.177-1.686-37.834-4.981-23.301-12.145-27.508-13.317-43.95a69.574 69.574 0 0 1-.163-5.398c.014-2.2.17-4.348.47-6.445 1.045-7.343 3.835-14.06 8.368-20.154a53.081 53.081 0 0 1 5.355-6.122" stroke="#2A2F54" stroke-width="2" fill="#FFF" stroke-linecap="round"/><path d="M151.442 145.486c-3.639 10.455-10.7 66.11-2.27 80.424 8.431 14.315 36.978 4.406 39.691 0 2.714-4.405-17.262-43.646-22.424-56.292-5.161-12.645-11.358-34.587-14.997-24.132z" fill="#DCE8FF"/><path d="M126.485 163.593c-7.96.244-15.19 28.155-8.62 37.01 6.57 8.854 32.927 9.022 35.28-1.08 2.352-10.103-18.7-36.174-26.66-35.93z" fill="#DCE8FF"/><g transform="rotate(4 -321.613 1346.1)"><g transform="translate(19.03)"><path d="M49.776 22.145c13.672-4.612 24.12-5.759 31.342-3.44 12.122 3.892 18.328 21.801 18.328 37.127 0 15.325 25.742 25.238 32.437 40.005 6.696 14.768-13.903 40.631-38.643 31.337-24.739-9.293-22.62-60.71-26.048-77.191-1.976-9.5-7.473-15.04-16.49-16.62-.863 8.653-4.922 16.063-7.28 19.539-2.643 3.898-7.859 6.02-15.648 6.366-3.777-18.262-8.67-30.43-14.679-36.503-9.013-9.11-10.14-7.05-11.643-14.212C-.051 1.392 1.138.37 8.336.092c7.199-.277 28.39-.627 38.112 14.677a28.065 28.065 0 0 1 3.328 7.376z" fill="#FFF"/><path d="M3.987 9.387c.094-6.343 3.177-9.16 9.25-8.45C22.343 2 28.998 1.134 37.556 6.82c8.556 5.686 10.6 15.152 13.8 15.15 3.2-.004 21.828-7.892 34.622 4.355C98.773 38.573 93.996 50 100.946 63.98c6.95 13.98 27.273 19.714 30.983 31.825 3.71 12.112-6.2 27.658-19.738 31.142-13.538 3.483-24.472.815-32.678-9.13-5.471-6.63-9.234-24.4-11.288-53.31l-4.629-25.296c-6.942-4.972-11.022-7.562-12.24-7.768-1.826-.31-2.354 14.713-7.933 19.998-3.72 3.524-8.388 4.884-14.004 4.08L3.987 9.388z" fill="#A2AFFF"/><path d="M7.008 11.423c-.314-5.236 4.69-7.191 15.014-5.866 15.485 1.989 22.066 19.964 24.143 20.768 2.077.805 18.863-6.199 32.392 8.58 13.53 14.779 5.594 27.303 16.938 42.342 11.344 15.04 20.119 10.509 26.818 28.024 6.7 17.515-23.12 39.923-38.606 14.214C68.22 93.775 68.364 52.339 64.59 43.007c-2.515-6.22-7.541-9.48-15.077-9.78-2.1 9.727-4.29 16.223-6.57 19.488-3.42 4.897-8.718 5.874-11.163 5.905-2.444.03-4.035-3.2-3.665-5.718.87-5.94 5.543-12.66 4.605-14.464-2.737-5.264-13.621-3.285-14.245-3.65-1.08-.635-4.903-8.422-11.467-23.365z" fill="#7679FF"/><path d="M48.057 36.342c-2.308-2.12-7.67-.758-16.086 4.085l-5.21 11.721c-2.616 5.195-1.932 7.844 2.05 7.948 5.975.154 12.194-3.245 16.145-7.742 3.95-4.497 6.562-12.833 3.1-16.012z" fill="#4C4FD6"/><path d="M1.452 5.436C2.197 2.021 4.492.24 8.336.092c7.199-.277 28.39-.627 38.112 14.677a28.065 28.065 0 0 1 3.328 7.376c13.672-4.612 24.12-5.759 31.342-3.44C93.24 22.597 97.532 37.87 100.07 54.29c2.538 16.42 33.06 25.942 33.06 44.145 0 18.202-15.15 38.034-39.89 28.74-24.739-9.293-22.62-60.71-26.048-77.191-1.976-9.5-7.473-15.04-16.49-16.62-.863 8.653-2.39 12.49-4.254 16.639-1.862 4.148-8.001 7.496-12.389 8.482" stroke="#2A2F54" stroke-width="2" stroke-linecap="round" stroke-linejoin="round"/></g><g transform="rotate(4 -109.849 87.51)"><path d="M36.393 25.48c6.676-1.901 11.772 1.391 12.237 5.821.395 3.768-3.321 9.844-6.726 11.073l7.258 21.583c-12.155 8.036-18.959 10.056-20.413 6.06-2.18-5.993-5.063-11.384-6.314-13.55-1.876-3.25-19.2-3.052-19.2-18.786 0-3.607 1.638-9.902 0-11.969-1.636-2.067-2.02-4.452-1.553-6.739.466-2.287 3.468-.573 6.84-3.013 3.371-2.44 5.752-9.887 10.125-13.847 4.373-3.96 11.76 12.91 13.646 15.63 1.885 2.719 3.163 8.003 4.1 7.737z" fill="#E1AEAA"/><path d="M41.953 23.502c-2.605-.118-4.798.149-6.643 1.904-1.844 1.756-4.295 6.391-1.714 6.692 2.58.3 9.167-4.154 10.101-5.008.934-.853.86-3.47-1.744-3.588z" fill="#CC888C"/><path d="M21.603 52.252c2.197-2.004 11.926-4.388 13.408-2.652 1.482 1.736-5.736 10.357-8.518 10.907-2.781.55-7.087-6.251-4.89-8.255z" fill="#CC888C"/><path d="M35.912 26.019c8.07-5.36 12.54 1.64 13.018 6.164.406 3.85-3.416 7.593-6.054 8.702-1.759.739.26 8.43 6.054 23.072-15.365 7.12-22.62 9.24-21.764 6.358 1.284-4.323-2.303-12.667-6.118-15.694-2.57-2.039-18.067-3.32-18.303-17.846-.06-3.683 2.722-10.171 1.04-12.283C2.103 22.381.14 20.042.619 17.706c.48-2.336 5.13-1.095 8.595-3.588 3.464-2.493 3.696-9.22 8.19-13.264 4.494-4.045 9.497 8.643 11.688 12.605 1.46 2.641 3.734 6.828 6.82 12.56z" stroke="#2A2F54" stroke-width="2" stroke-linecap="round" stroke-linejoin="round"/><path d="M1.983 31.162c3.179 3.644 8.715 4.035 12.366.872" stroke="#2A2F54" stroke-width="2" stroke-linecap="round" stroke-linejoin="round"/><path d="M40.832 30.19l-3.327 2.654" stroke="#2A2F54" stroke-width="2" stroke-linecap="round"/><ellipse fill="#2A2F54" cx="17.552" cy="14.836" rx="1.88" ry="1.873"/></g></g><g transform="translate(31.985 110.13)"><path d="M53.195 93.174c-.075-.013-2.836-.076-4.223-.36-8.134-1.353-10.727-1.377-13.053-.818-5.6 1.344-12.67 2.231-15.948 2.343-3.277.112-8.278-1.247-12.096-4.825-3.818-3.577-8.49-10.379-5.542-11.84 2.948-1.46 11.977 3.015 18.475 2.94 4.333-.05 4.619-.412 8.083-1.716 3.465-1.304 1.544-2.482 0-2.737-2.503-.414-4.332-.37-4.961-.958-.87-.811-3.46-3.711-1.64-4.115 1.82-.403 12.886.616 16 2.3 3.115 1.683 7.083 4.837 9.662 7.127.353.313 1.658.574 3.652.785 2.265.24 1.667 11.888 1.591 11.874z" fill="#E1AEAA"/><path d="M38.216 80.28c-4.8-1.916-9.684-.274-12.463 1.917-2.78 2.19-6.382 7.611-5.1 10.333 1.28 2.721 20.51 1.117 23.61-.41 3.1-1.529-1.247-9.923-6.047-11.84z" fill="#CC888C"/><path d="M41.564 94.883c-5.466-.81-10.187-.759-12.148-.41-14.054 2.506-20.845-.307-24.679-4.329-3.834-4.021-5.91-14.808-2.64-14.866 3.271-.057 5.334-.002 10.186 2.306 4.323 2.056 13.673 1.683 17.133.237-1.733-1.8-2.172-2.25-3.716-2.543-2.506-.473-4.334-.432-4.966-1.092-.874-.913-3.476-4.17-1.658-4.615 1.818-.444 12.89.742 16.013 2.64 3.122 1.899 7.104 5.447 9.693 8.02" stroke="#2A2F54" stroke-width="2" stroke-linecap="round" stroke-linejoin="round"/><path d="M112.385 17.506c6.687 12.282 28.704 72.077 20.202 82.818-8.503 10.741-80.397 2.404-84.415.146-4.018-2.258-1.475-21.882 1.064-23.016 2.539-1.134 48.5 4.015 50.47-1.049 1.969-5.064-26.302-48.548-17.379-64.518 8.924-15.97 23.37-6.663 30.058 5.619z" fill="#FFF"/><path d="M96.26 11.87c2.567 11.253 27.78 59.794 23.327 74.5-2.969 9.803-21.814 14.744-56.538 14.82 42.564 6.906 66.346 6.906 71.346 0 7.5-10.358-17.706-74-22.22-83.806C107.662 7.58 93.693.616 96.26 11.87z" fill="#DCE8FF"/><path d="M112.385 17.506c6.687 12.282 28.704 72.077 20.202 82.818-8.503 10.741-80.397 2.404-84.415.146-4.018-2.258-1.475-21.882 1.064-23.016 2.539-1.134 48.5 4.015 50.47-1.049 1.969-5.064-26.302-48.548-17.379-64.518 8.924-15.97 23.37-6.663 30.058 5.619z" stroke="#2A2F54" stroke-width="2"/></g><path d="M117.447 234.047L110.075 255m80.136-18.952l2.95 10.002" stroke="#2A2F54" stroke-width="2" stroke-linecap="round"/></g><g transform="translate(0 6)"><path d="M54.946 294.607c-2.123 2.829-.112 9.262.612 10.693.723 1.431 2.927.434 4.335-.904s-.15-3.656 1.292-4.443c1.441-.786 3.757 2.872 4.462 1.302.704-1.57.303-5.015-.738-6.512-1.04-1.497-7.84-2.965-9.963-.136z" fill="#FFE2DC"/><path d="M55.263 292.553c0 .594-1.102 4.949 1.207 5.381 2.31.433 7.803-1.367 8.81-2.527 1.007-1.16 1.007-3.447-.314-4.2-1.322-.754-9.703.753-9.703 1.346z" fill="#F5B9B7"/><path d="M56.07 304.12c.69 3.84 1.468 7.215 6.19 11.87 4.724 4.656 18.913 8.599 13.546 3.881-3.578-3.144-8.37-8.636-14.374-16.473-4.034-2.08-5.821-1.839-5.362.721z" fill="#C9D1FF"/><path d="M64.964 295.678A59.444 59.444 0 0 1 64.78 294m-9.78.294v7.003c.75 6.642 3.87 11.948 9.357 15.915 8.23 5.951 20.067 4.444 15.708-1.42-2.483-3.34-6.672-7.511-9.936-11.018-1.647-2.514-2.697-4.177-3.153-4.99-.684-1.221-4.296-2.186-5.335-1.221-1.04.964.053 3.499-.568 4.479-.414.653-1.36.653-2.839 0M66.5 306.5l-2 1m6 2l-3 2" stroke="#2A2F54" stroke-width="2" stroke-linecap="round"/><path d="M97.995 290c-1.327 9.607-1.327 15.462 0 17.564 1.989 3.154 38.785 7.027 33.483 2.057-5.301-4.969-16.792-6.59-21.593-10.97-3.2-2.921-3.932-5.804-2.194-8.651h-9.696z" fill="#FFE2DC"/><path d="M98.641 290.305c-.072.51-1.432 4.134.255 4.747 1.687.614 6.043-.355 6.943-1.246.9-.89 1.178-2.854.274-3.64-.903-.785-7.4-.37-7.472.14z" fill="#F5B9B7"/><path d="M97.87 299.852c.89-.873 4.315 1.36 6.784.937 2.47-.423 2.813-2.41 3.303-2.663.327-.168.946-.168 1.858 0l5.908 3.404c13.283 4.583 18.436 7.555 15.46 8.918-4.465 2.043-31.907-2.182-33.312-2.994-1.405-.812-.889-6.729 0-7.602z" fill="#FFF"/><path d="M99.35 303.644c-.912 1.049-.125 5.83 3.335 6.825 3.461.994 22.201 3.806 23.271 1.862 1.07-1.945-17.825-8.045-19.514-8.687-1.69-.643-6.178-1.05-7.091 0z" fill="#C9D1FF"/><path d="M97.722 292.286c-1.046 8.291-.955 13.4.273 15.326 1.989 3.12 38.785 6.95 33.483 2.035-5.301-4.915-16.792-6.519-21.593-10.852-2.534-2.288-3.52-4.553-2.958-6.795" stroke="#2A2F54" stroke-width="2" stroke-linecap="round"/><path d="M60.977 146c-2.087 6.615-4.257 14.192-6.509 22.731-3.378 12.808-1.52 32.96-2.802 50.316-1.282 17.357-3.935 22.747-5.366 39.03-1.43 16.282 2.563 32.042 5.366 33.848 2.802 1.806 12.326 1.62 16.749-2.76 4.423-4.38 3.057-26.13 7.318-52.386 4.261-26.255 2.503-49.005 8.015-50.668 5.511-1.664 10.44 28.35 11.987 35.424 1.548 7.073 1.245 15.483-1.101 28.252-2.043 11.12-2.313 36.989-.11 39.378 2.204 2.388 15.998 2.178 19.08.6 3.08-1.579 9.396-56.635 9.396-68.23 0-7.73-5.42-31.146-16.26-70.247L60.976 146z" fill="#FFF"/><path d="M60.393 146c-2.005 6.515-4.09 13.977-6.255 22.386-3.247 12.613-1.462 32.459-2.693 49.552-1.232 17.093-3.781 22.401-5.156 38.437-1.375 16.035 2.463 31.555 5.156 33.334 2.693 1.778 11.795 4.179 16.046-.135 4.25-4.314 2.988-28.316 7.084-54.173 4.095-25.857 2.405-48.26 7.702-49.9 5.297-1.638 10.034 27.921 11.52 34.887 1.488 6.966 1.196 15.248-1.058 27.823-1.964 10.952-2.118 39.145 0 41.498 2.118 2.352 15.27-.573 18.23-2.128 2.961-1.554 9.031-55.774 9.031-67.193 0-7.613-5.21-30.673-15.627-69.18L60.393 146z" fill="#BDC6FF"/><path d="M58.291 165.252c2.839 1.433 12.374 2.935 23.786 3.513 11.413.578 17.08.063 22.74-1.232 5.66-1.294 4.599-3.129 2.485-4.537-2.114-1.408-39.847-2.996-44.828-2.996-4.981 0-7.022 3.818-4.183 5.252z" fill="#919FF7"/><path d="M53.011 291.388c1.29-.961 2.43-41.416 4.27-70.683 1.227-19.51 3.324-39.499 6.293-59.965-4.68-.347-7.435-.267-8.266.239-1.246.758-2.406 5.866-3.5 12.581-1.093 6.715-.261 23.065-2.04 47.327-1.778 24.262-3.893 26.274-4.4 40.533-.505 14.26.74 19.707 1.85 25.137 1.112 5.43 4.504 5.791 5.793 4.83z" fill="#919FF7"/><path d="M103.336 290.403c.908-1.02 2.796-23.362 5.664-67.023-6.412-21.033-11.198-33.995-14.358-38.886-4.74-7.337-11.756-4.59-10.492.422 1.264 5.012 9.089 27.425 10.492 40.95 1.403 13.524-2.748 21.389-2.748 36.192s-1.878 21.775 1.364 25.06 8.717 4.817 10.078 3.285z" fill="#919FF7"/><path d="M55.243 166c-.257.96-.516 1.931-.775 2.916-3.378 12.825-1.52 33.004-2.802 50.384-1.282 17.38-3.935 22.778-5.366 39.083-1.43 16.305 2.563 31.15 5.366 32.958 2.802 1.809 12.368 3.058 16.791-1.329 4.423-4.386 3.015-26.664 7.276-52.956 4.261-26.29 2.503-49.07 8.015-50.737 5.511-1.666 10.44 28.39 11.987 35.472 1.548 7.083 1.245 15.505-1.101 28.291-2.043 11.136-2.313 37.039-.11 39.43 2.204 2.393 15.998 2.182 19.08.602 3.08-1.58 9.396-56.712 9.396-68.323 0-6.472-3.79-23.926-11.37-52.362" stroke="#2A2F54" stroke-width="2" stroke-linecap="round"/><path d="M99 300.616c4.076.512 6.348.512 6.819 0 .705-.768.002-2.676.705-3.096.703-.42 4.476-.923 4.476 0" stroke="#2A2F54" stroke-width="2" stroke-linecap="round" stroke-linejoin="round"/><path d="M51 40.915l7.218-19.237c.112-7.844 1.305-13.043 3.576-15.597 3.408-3.83 4.156-3.365 5.236-4.362 1.884-1.738 8.438-2.683 8.438-.242 0 2.442-5.242 6.5-5.628 11.055-.386 4.555 3.843 4.319 5.628 3.851 1.785-.467 2.762-.416 2.933.154 1.37 1.285.391 2.726-2.933 4.323-4.987 2.395-8.817 4.51-10.468 6.087-1.1 1.051-1.936 7.787-3.206 17.053" fill="#FFE2DC"/><path d="M73.08 3.237c-1.889-.173-6.98 3.126-8.633 6.856-1.654 3.73-1.473 6.56.663 7.51 2.135.95 4.93 1.766 5.89-.193.962-1.959-1.295-1.836-1.307-5.912-.01-4.076 5.275-8.087 3.386-8.26z" fill="#F5B9B7"/><path d="M56 27.46l2.132-5.894c.113-7.804 1.31-12.976 3.592-15.516 3.421-3.81 4.172-3.348 5.257-4.34 1.891-1.73 8.472-2.67 8.472-.24 0 2.429-5.263 6.465-5.65 10.996-.388 4.532 3.858 4.297 5.65 3.832 1.792-.465 2.774-.414 2.945.153 1.375 1.278.394 2.712-2.945 4.3-5.007 2.383-8.853 4.488-10.51 6.056-.401.38-1.028 1.477-1.392 3.193" stroke="#2A2F54" stroke-width="2" stroke-linecap="round" stroke-linejoin="round"/><path d="M120.31 43.61v-3.697c.233-4.21-.27-7.882-4.501-11.91-4.231-4.03-3.347-6.151-7.34-8.311-1.205-.652.043-2.933 2.269-2.35 3.076.803 5.683 6.063 6.315.803.632-5.259-3.295-11.121-1.244-13.267 2.05-2.146 8.517-.418 10.973 5.857 1.637 4.184 1.637 10.514 0 18.991L129 45" fill="#FFE2DC"/><path d="M120.34 16.007c1.044.122 5.58 1.677 6.858 2.96 1.789 1.794.03 5.1 0 5.437-.121 1.355-6.775.334-7.75-2.396-.442-1.234-1.04-6.225.891-6z" fill="#F5B9B7"/><path d="M119.615 33c-.65-1.862-1.816-3.71-3.81-5.638-4.23-4.09-3.345-6.243-7.337-8.435-1.204-.662.044-2.977 2.268-2.386 3.075.816 5.68 6.154 6.313.816.631-5.338-3.294-11.288-1.244-13.466 2.05-2.178 8.513-.424 10.968 5.945 1.636 4.247 1.636 10.672 0 19.276l.515 3.602" stroke="#2A2F54" stroke-width="2" stroke-linecap="round" stroke-linejoin="round"/><path d="M65.285 86.899L78.3 84c2.72 1.213 4.939 1.82 6.655 1.82 1.715 0 3.835-.607 6.358-1.82l12.041 5.057L113 97.69l-5.12 28c5.15 22.262 5.995 35.06 2.535 38.394-5.19 5.002-60.149-1.077-61.301-3.603-1.153-2.526 6.794-23.523 8.288-35.297.996-7.85-.424-15.395-4.261-22.638L65.285 86.9z" fill="#FFF"/><path d="M65.285 86.899L78.3 84c2.72 1.213 4.939 1.82 6.655 1.82 1.715 0 3.835-.607 6.358-1.82l12.041 5.057L113 97.69l-5.12 28c5.15 22.262 5.995 35.06 2.535 38.394-5.19 5.002-60.149-1.077-61.301-3.603-1.153-2.526 6.794-23.523 8.288-35.297.996-7.85-.424-15.395-4.261-22.638L65.285 86.9z" stroke="#2A2F54" stroke-width="2" fill="#FFF"/><path d="M54.213 154.214c-3.169-9.002 29.88-36.017 38.479-35.196 8.599.821 20.227 36.212 16.64 41.295-3.586 5.083-51.95 2.902-55.119-6.1z" fill="#DCE8FF"/><path d="M94.371 82.68c11.437-8.498 17.63-13.302 18.578-14.411 1.423-1.664 3.971-8.272 3.971-15.584 0-7.313-1.027-14.676 0-16.14.466-.664 4.177.143 7.004 0 3.402-.171 6.009-1.136 6.57 0 1.028 2.082 3.027 28.348-.477 36.779-3.504 8.43-13.097 18.377-13.097 25.945 0 7.567 13.097 43.651 13.097 47.465 0 3.815-21.556 8.02-23.67 5.505-1.409-1.676-6.525-20.645-15.347-56.907l3.371-12.651z" fill="#FFF"/><path d="M95.96 82.376c10.863-8.046 16.711-12.626 17.544-13.74 1.25-1.671 3.77-9.038 3.77-16.381 0-7.344-.126-15.629.776-17.099.41-.667 1.377 1.028 3.859.885 2.987-.173 5.276-1.142 5.769 0 .903 2.09 2.658 28.47-.419 36.938-3.077 8.467-11.5 18.457-11.5 26.057 0 7.6 11.5 43.84 11.5 47.671 0 3.831-18.928 8.054-20.783 5.529-1.238-1.684-5.73-20.735-13.476-57.154l2.96-12.706z" fill="#FFD8A7"/><path d="M94.371 82.68c11.437-8.498 17.63-13.302 18.578-14.411 1.423-1.664 3.971-8.272 3.971-15.584 0-7.313-1.027-14.676 0-16.14.466-.664 4.177.143 7.004 0 3.402-.171 6.009-1.136 6.57 0 1.028 2.082 3.027 28.348-.477 36.779-3.504 8.43-13.097 18.377-13.097 25.945 0 7.567 13.097 43.651 13.097 47.465 0 3.815-21.556 8.02-23.67 5.505-1.409-1.676-6.525-20.645-15.347-56.907l3.371-12.651z" stroke="#2A2F54" stroke-width="2"/><g transform="translate(63 34)"><path d="M17.047 6.913v9.797L13.605 28.97l4.776 9.13c-2.748 1.287-4.732 1.375-5.953.262-3.923-3.577-9.535-7.498-9.94-12.401-.407-4.904.252-11.843 2.686-15.58 1.623-2.492 3.673-3.648 6.15-3.469h5.723z" fill="#BC8383"/><path d="M13.501 22.336c-2.18-3.891-7.486-8.245-9.5-6.856-2.012 1.39-2.556 6.337 0 13.414 2.558 7.076 7.024 9.057 8.596 10.374 1.572 1.316 2.757 1.275 3.611-.15.57-.95.57-2.908 0-5.873-3.398.086-5.433-.249-6.103-1.003-1.005-1.131-.967-3.044 0-5.864s5.576-.15 3.396-4.042z" fill="#8C5353"/><path d="M16.862 11.632v4.338l-3.917 12.666 5.436 9.431c-3.128 1.33-5.386 1.42-6.776.27C7.139 34.642.75 30.593.288 25.527c-.461-5.066.289-12.234 3.06-16.094 1.847-2.574 4.18-3.768 6.999-3.583" stroke="#2A2F54" stroke-width="2"/><path d="M35.566 17.58c3.134 5.752 4.701 10.172 4.701 13.263 0 6.595-9.475 8.16-10.702 10.538-1.227 2.378.634 7.393 0 9.887-.634 2.494-2.766 5.17-6.75 4.572-3.983-.598-7.316-3.885-7.316-6.497V33.492a5.7 5.7 0 0 1-.919.358c-2.924.859-6.018-.722-6.912-3.53-.894-2.81.752-5.783 3.675-6.641a5.731 5.731 0 0 1 2.324-.19c1.628-4.16 2.442-7.833 2.442-11.019 0-3.805 4.88-4.77 14.642-2.897" fill="#FFE2DC"/><path d="M29.137 38.66c-1.23-1.992-8.46-2.28-9.154-.171-.693 2.11 5.303 6.53 7.608 6.904 2.305.375 2.776-4.74 1.546-6.733z" fill="#F5B9B7"/><path d="M38.386 23.38c1.254 3.02 1.881 5.508 1.881 7.463 0 6.595-9.475 8.16-10.702 10.538-1.227 2.378.634 7.393 0 9.887-.634 2.494-3.647 4.639-7.63 4.04-3.984-.598-6.436-3.353-6.436-5.965V33.492a5.7 5.7 0 0 1-.919.358c-2.924.859-6.018-.722-6.912-3.53-.894-2.81.752-5.783 3.675-6.641.777-.229 2.076-.392 2.832-.299 1.629-4.159 1.934-7.724 1.934-10.91 0-3.805 4.88-4.77 14.642-2.897" stroke="#2A2F54" stroke-width="2" stroke-linecap="round" stroke-linejoin="round"/><path d="M14.392 27.654h-2.214" stroke="#2A2F54" stroke-width="2" stroke-linecap="round"/><path d="M29.362 15.879c3.59 2.122 5.492 3.732 5.707 4.827.135.686-.326 1.845-1.383 3.48" stroke="#2A2F54" stroke-width="2" stroke-linecap="round" stroke-linejoin="round"/><path d="M10.132 6.695c4.774-3.762 9.283-4.983 13.526-3.662C27.9 4.353 31.455 5.169 34.32 5.48c.617 1.446.014 2.8-1.81 4.063-2.736 1.894-5.316 2.78-7.873 3.255-1.705.317-4.341-.03-7.908-1.038l-6.597-5.065z" fill="#BC8383"/><path d="M10.132 5.423C14.906.89 19.415-.58 23.658 1.01 27.9 2.602 31.455 3.585 34.32 3.958c.617 1.743.014 3.375-1.81 4.896-2.736 2.281-5.316 3.349-7.873 3.921-1.705.382-4.341-.035-7.908-1.25l-6.597-6.102z" stroke="#2A2F54" stroke-width="2"/><path d="M28.785 29.299c2.168 1.627 5.299 1.258 6.993-.825" stroke="#2A2F54" stroke-width="2" stroke-linecap="round"/><ellipse fill="#2A2F54" cx="23.526" cy="19.411" rx="1.384" ry="1.33"/><ellipse fill="#2A2F54" cx="32.383" cy="14.093" rx="1.384" ry="1.33"/></g><path d="M77.137 85.21C80.524 88.085 81 90.657 81 93.94c0 3.283-14.3 55.73-17.762 57.354-3.463 1.624-23.567.516-24.771-4.067-.63-2.398 13.55-41.791 13.55-46.145 0-4.354-13.298-16.353-15.726-26.008-2.427-9.655 11.043-41.093 13.493-43.29 2.45-2.197 14.26.601 14.795 3.753.534 3.151-8.407 28.912-8.407 33.324 0 4.412 3.038 7.347 7.066 10.452 4.028 3.106 10.512 3.025 13.9 5.898z" fill="#FFF"/><path d="M77.137 85.21C80.524 88.085 81 90.657 81 93.94c0 3.283-14.3 55.73-17.762 57.354-3.463 1.624-23.567.516-24.771-4.067-.63-2.398 11.317-42.686 11.317-47.04 0-4.354-11.065-15.458-13.493-25.113-2.427-9.655 11.043-41.093 13.493-43.29 2.45-2.197 14.26.601 14.795 3.753.534 3.151-8.407 28.912-8.407 33.324 0 4.412 3.038 7.347 7.066 10.452 4.028 3.106 10.512 3.025 13.9 5.898z" fill="#FFF"/><path d="M77.48 85.21c3.087 2.874 3.52 5.446 3.52 8.73 0 3.283-13.029 55.73-16.183 57.354-3.155 1.624-21.473.516-22.57-4.067-.574-2.398 8.974-42.348 8.974-46.702 0-4.354-8.744-15.796-10.956-25.451-2.211-9.655 10.062-41.093 12.293-43.29 2.232-2.197 12.994.601 13.48 3.753.487 3.151-7.66 28.912-7.66 33.324 0 4.412 2.769 7.347 6.439 10.452 3.67 3.106 9.577 3.025 12.663 5.898z" fill="#FFD8A7"/><path d="M62.809 145.315C64.463 135.625 54.92 98.85 52.183 99c-1.34.074-2.508 11.312-4.808 22.248-2.4 11.409-5.895 22.578-5.31 24.757 1.146 4.27 19.09 9.001 20.744-.69zm15.443-45.564c1.763-.886 2.382-5.127.967-5.682-1.416-.554-5.994 2.358-6.21 3.628-.216 1.27 3.48 2.94 5.243 2.054z" fill="#FFB871"/><path d="M77.137 85.21C80.524 88.085 81 90.657 81 93.94c0 3.283-14.3 55.73-17.762 57.354-3.463 1.624-23.567.516-24.771-4.067-.63-2.398 11.317-41.84 11.317-46.702 0-4.862-11.065-15.796-13.493-25.451-2.427-9.655 11.043-41.093 13.493-43.29 2.45-2.197 14.26.601 14.795 3.753.534 3.151-8.407 28.912-8.407 33.324 0 4.412 3.038 7.347 7.066 10.452 4.028 3.106 10.512 3.025 13.9 5.898z" stroke="#2A2F54" stroke-width="2"/><path d="M113.15 301.876l-2.15 2.669m4.497-.214l-1.245 2.053" stroke="#2A2F54" stroke-width="2" stroke-linecap="round"/><path d="M94.589 95.326c1.29-1.08 6.064.737 6.391 2.363.327 1.627-3.453 4.834-5.064 4.238-1.61-.596-2.618-5.521-1.327-6.601z" fill="#FFB871"/><path stroke="#2A2F54" stroke-width="2" stroke-linecap="round" stroke-linejoin="round" d="M74 86L74.576391 97 79 93.4837216"/><path stroke="#2A2F54" stroke-width="2" stroke-linecap="round" stroke-linejoin="round" d="M95 95.3797228L100 97 99.0296906 84"/></g><g transform="rotate(9 -23.876 1083.797)"><g transform="rotate(4 1.094 54.588)"><path d="M83.486 6.999C80.165 4.956 2.735-.166.329.869c-2.405 1.034 40.695 51.797 44.834 51.417 2.759-.253 4.367-9.606 4.824-28.058 6.18-3.73 10.768-6.262 13.762-7.593 13.3-5.915 21.392-8.618 19.737-9.636z" fill="#FFF"/><path d="M7.856 4.462C5.5 7.047 46.356 44.92 49.402 44.341c3.047-.58.333-16.811 1.911-17.82 1.579-1.01 4.627 7.563 7.66 6.226 3.034-1.338 5.022-13.243 5.943-14.701.922-1.459 18.82-5.62 18.62-8.296-.2-2.678-73.325-7.873-75.68-5.288z" fill="#DCE8FF"/><path d="M61.037 22.884c.743.58.698 8.49-1.687 9.432-2.169.858-6.511-5.117-9.4-7.002C41.24 19.633 25.912 14.4 26.324 12.99c.7-2.393 33.293 8.787 34.712 9.894z" fill="#9AB2FF"/><path d="M63.749 16.635c13.3-5.915 21.392-8.618 19.737-9.636C80.165 4.956 2.735-.166.329.869c-2.405 1.034 40.695 51.797 44.834 51.417 2.759-.253 4.367-9.606 4.824-28.058" stroke="#2A2F54" stroke-width="2" stroke-linejoin="round"/><path d="M63.434 15.65C34.328 9.012 19.336 5.899 18.458 6.308c-.88.41 9.49 6.192 31.106 17.347 4.28 5.9 6.923 8.88 7.932 8.944 1.01.063 2.989-5.587 5.938-16.95z" stroke="#2A2F54" stroke-width="2" stroke-linecap="round" stroke-linejoin="round"/><path d="M43.646 48.072l-7.688-26.327M75.03 7.055L50.928 8.736" stroke="#2A2F54" stroke-width="2" stroke-linecap="round"/></g><path d="M91.016 40.132l26.99 12.894M79.274 42.052l11.994 5.754" stroke="#8B93B0" stroke-width="2" stroke-linecap="round" stroke-linejoin="round"/></g></g></svg>