<svg height="60" width="60" xmlns="http://www.w3.org/2000/svg"><g fill="none" fill-rule="evenodd"><circle cx="30" cy="30" fill="#fff" r="30"/><path d="M34.589 21.306c-8.129 2.257-21.87 14.319-19.141 23.734s24.341 5.47 28.391-1.437c4.05-6.907-1.122-24.553-9.25-22.297z" fill="#ffdf7e"/><g stroke="#2a2f54" stroke-linecap="round" stroke-width="2"><path d="M46.66 29.366c0-9.837-7.58-16.212-16.04-16.212-6.238 0-11.313 2.318-14.386 7.63"/><path d="M52.085 21.87c-2.901 4.98-4.778 7.477-5.63 7.49-.853.014-3.333-1.591-7.44-4.815" stroke-linejoin="round"/><g><path d="M13.515 30.07c0 9.748 7.056 16.372 16.487 16.372 5.699 0 10.082-2.478 12.794-6.246"/><path d="M8.11 37.47c2.625-5.156 4.468-7.74 5.53-7.752 1.063-.012 3.562 1.706 7.5 5.155" stroke-linejoin="round"/></g></g></g></svg>