<?xml version="1.0" encoding="utf-8"?>
<!-- Generator: Adobe Illustrator 19.0.0, SVG Export Plug-In . SVG Version: 6.00 Build 0)  -->
<svg version="1.1" id="Layer_1" xmlns="http://www.w3.org/2000/svg" xmlns:xlink="http://www.w3.org/1999/xlink" x="0px" y="0px"
	 viewBox="0 0 240 180" style="enable-background:new 0 0 240 180;" xml:space="preserve">
<style type="text/css">
	.st0{fill:#FFFDB3;}
	.st1{fill:#0F303F;}
	.st2{fill:#F7F7F7;}
	.st3{fill:#F0F0F0;}
	.st4{fill:#193640;}
	.st5{fill:#DE3F19;}
	.st6{fill:#FF641E;}
	.st7{fill:#F09518;}
	.st8{fill:#FFC90A;}
	.st9{fill:#A1B400;}
	.st10{fill:#808080;}
</style>
<g id="XMLID_770_">
	<rect id="XMLID_984_" x="0" y="0" class="st0" width="240" height="180"/>
	<g id="XMLID_771_">
		<g id="XMLID_772_">
			<g id="XMLID_981_">
				<g id="XMLID_982_">
					<path id="XMLID_983_" class="st1" d="M65.9,20h108.1c12.7,0,23,10.3,23,23v10.2V137c0,12.7-10.3,23-23,23H65.9
						c-12.7,0-23-10.3-23-23V53.3V43C42.9,30.3,53.2,20,65.9,20z"/>
				</g>
			</g>
			<g id="XMLID_978_">
				<g id="XMLID_979_">
					<path id="XMLID_980_" class="st2" d="M134.4,37.6c-3.4,0-6.3-2.5-6.7-5.9c-0.1-0.3-0.1-0.6-0.1-1c0-0.1,0-0.3,0-0.4
						c0.2-3.6,3.2-6.4,6.8-6.4c3.6,0,6.5,2.7,6.8,6.2c0,0.2,0,0.4,0,0.6c0,0.2,0,0.5,0,0.7C140.8,35,137.9,37.6,134.4,37.6z"/>
				</g>
			</g>
			<g id="XMLID_975_">
				<g id="XMLID_976_">
					<path id="XMLID_977_" class="st2" d="M152.1,37.6c-3.5,0-6.4-2.7-6.8-6.1c0-0.2,0-0.5,0-0.7c0-0.2,0-0.4,0-0.6
						c0.3-3.5,3.2-6.2,6.8-6.2c3.6,0,6.5,2.7,6.8,6.2c0,0.2,0,0.4,0,0.6c0,0.2,0,0.5,0,0.7C158.5,35,155.6,37.6,152.1,37.6z"/>
				</g>
			</g>
			<g id="XMLID_972_">
				<g id="XMLID_973_">
					<path id="XMLID_974_" class="st3" d="M65.9,41.7h108.1c6.4,0,11.5,5.2,11.5,11.5V137c0,6.4-5.2,11.5-11.5,11.5H65.9
						c-6.3,0-11.5-5.2-11.5-11.5V53.3C54.4,46.9,59.6,41.7,65.9,41.7z"/>
				</g>
			</g>
			<g id="XMLID_969_">
				<g id="XMLID_970_">
					<path id="XMLID_971_" class="st2" d="M169.7,37.6c-3.5,0-6.4-2.7-6.8-6.1c0-0.2,0-0.5,0-0.7c0-0.2,0-0.4,0-0.6
						c0.3-3.5,3.2-6.2,6.8-6.2c3.6,0,6.5,2.7,6.8,6.2c0,0.2,0,0.4,0,0.6c0,0.2,0,0.5,0,0.7C176.2,35,173.3,37.6,169.7,37.6z"/>
				</g>
			</g>
			<g id="XMLID_773_">
				<g id="XMLID_966_">
					<g id="XMLID_967_">
						<rect id="XMLID_968_" x="66.3" y="53.2" class="st4" width="2.4" height="82.2"/>
					</g>
				</g>
				<g id="XMLID_963_">
					<g id="XMLID_964_">
						<rect id="XMLID_965_" x="68.7" y="53.2" class="st4" width="2.3" height="82.2"/>
					</g>
				</g>
				<g id="XMLID_960_">
					<g id="XMLID_961_">
						<rect id="XMLID_962_" x="94.7" y="57.9" class="st5" width="25.3" height="2.3"/>
					</g>
				</g>
				<g id="XMLID_957_">
					<g id="XMLID_958_">
						<rect id="XMLID_959_" x="79.3" y="54.9" class="st6" width="9.5" height="8.4"/>
					</g>
				</g>
				<g id="XMLID_954_">
					<g id="XMLID_955_">
						<rect id="XMLID_956_" x="94.7" y="68.5" class="st7" width="25.3" height="2.3"/>
					</g>
				</g>
				<g id="XMLID_951_">
					<g id="XMLID_952_">
						<rect id="XMLID_953_" x="79.3" y="65.4" class="st8" width="9.5" height="8.4"/>
					</g>
				</g>
				<g id="XMLID_948_">
					<g id="XMLID_949_">
						<rect id="XMLID_950_" x="94.7" y="79.1" class="st9" width="25.3" height="2.3"/>
					</g>
				</g>
				<g id="XMLID_945_">
					<g id="XMLID_946_">
						<rect id="XMLID_947_" x="79.3" y="76" class="st9" width="9.5" height="8.4"/>
					</g>
				</g>
				<g id="XMLID_938_">
					<g id="XMLID_942_">
						<g id="XMLID_943_">
							<rect id="XMLID_944_" x="66.3" y="130.8" class="st4" width="107.4" height="4.5"/>
						</g>
					</g>
					<g id="XMLID_939_">
						<g id="XMLID_940_">
							<rect id="XMLID_941_" x="66.3" y="130.7" class="st4" width="107.4" height="2.3"/>
						</g>
					</g>
				</g>
				<g id="XMLID_935_">
					<g id="XMLID_936_">
						<path id="XMLID_937_" class="st4" d="M78.5,114.4c-0.4,0-0.7-0.1-1.1-0.4c-0.8-0.6-0.9-1.7-0.3-2.4L96,87
							c0.3-0.4,0.7-0.6,1.2-0.7s0.9,0.1,1.3,0.4l15.6,12.7l19-26.7c0.3-0.4,0.7-0.7,1.2-0.7c0.5-0.1,1,0.1,1.3,0.4l10.4,9.2
							l18.4-25.6c0.6-0.8,1.6-0.9,2.4-0.4c0.8,0.6,0.9,1.6,0.4,2.4l-19.5,27.1c-0.3,0.4-0.7,0.7-1.2,0.7c-0.5,0.1-1-0.1-1.3-0.4
							l-10.4-9.2l-19,26.6c-0.3,0.4-0.7,0.6-1.2,0.7c-0.5,0.1-0.9-0.1-1.3-0.4L97.6,90.5l-17.7,23.2
							C79.6,114.2,79.1,114.4,78.5,114.4z"/>
					</g>
				</g>
				<g id="XMLID_906_">
					<g id="XMLID_931_">
						<g id="XMLID_932_">
							<g id="XMLID_933_">
								<rect id="XMLID_934_" x="146" y="92.9" class="st10" width="1.1" height="3.3"/>
							</g>
						</g>
					</g>
					<g id="XMLID_927_">
						<g id="XMLID_928_">
							<g id="XMLID_929_">
								<rect id="XMLID_930_" x="146" y="97.9" class="st10" width="1.1" height="3.3"/>
							</g>
						</g>
					</g>
					<g id="XMLID_923_">
						<g id="XMLID_924_">
							<g id="XMLID_925_">
								<rect id="XMLID_926_" x="146" y="102.9" class="st10" width="1.1" height="3.3"/>
							</g>
						</g>
					</g>
					<g id="XMLID_919_">
						<g id="XMLID_920_">
							<g id="XMLID_921_">
								<rect id="XMLID_922_" x="146" y="107.9" class="st10" width="1.1" height="3.3"/>
							</g>
						</g>
					</g>
					<g id="XMLID_915_">
						<g id="XMLID_916_">
							<g id="XMLID_917_">
								<rect id="XMLID_918_" x="146" y="112.8" class="st10" width="1.1" height="3.3"/>
							</g>
						</g>
					</g>
					<g id="XMLID_911_">
						<g id="XMLID_912_">
							<g id="XMLID_913_">
								<rect id="XMLID_914_" x="146" y="117.8" class="st10" width="1.1" height="3.3"/>
							</g>
						</g>
					</g>
					<g id="XMLID_907_">
						<g id="XMLID_908_">
							<g id="XMLID_909_">
								<rect id="XMLID_910_" x="146" y="122.8" class="st10" width="1.1" height="3.3"/>
							</g>
						</g>
					</g>
				</g>
				<g id="XMLID_857_">
					<g id="XMLID_902_">
						<g id="XMLID_903_">
							<g id="XMLID_904_">
								<rect id="XMLID_905_" x="163.4" y="70.5" class="st10" width="1.1" height="3.2"/>
							</g>
						</g>
					</g>
					<g id="XMLID_898_">
						<g id="XMLID_899_">
							<g id="XMLID_900_">
								<rect id="XMLID_901_" x="163.4" y="75.3" class="st10" width="1.1" height="3.2"/>
							</g>
						</g>
					</g>
					<g id="XMLID_894_">
						<g id="XMLID_895_">
							<g id="XMLID_896_">
								<rect id="XMLID_897_" x="163.4" y="80.1" class="st10" width="1.1" height="3.2"/>
							</g>
						</g>
					</g>
					<g id="XMLID_890_">
						<g id="XMLID_891_">
							<g id="XMLID_892_">
								<rect id="XMLID_893_" x="163.4" y="84.8" class="st10" width="1.1" height="3.2"/>
							</g>
						</g>
					</g>
					<g id="XMLID_886_">
						<g id="XMLID_887_">
							<g id="XMLID_888_">
								<rect id="XMLID_889_" x="163.4" y="89.6" class="st10" width="1.1" height="3.2"/>
							</g>
						</g>
					</g>
					<g id="XMLID_882_">
						<g id="XMLID_883_">
							<g id="XMLID_884_">
								<rect id="XMLID_885_" x="163.4" y="94.3" class="st10" width="1.1" height="3.2"/>
							</g>
						</g>
					</g>
					<g id="XMLID_878_">
						<g id="XMLID_879_">
							<g id="XMLID_880_">
								<rect id="XMLID_881_" x="163.4" y="99.1" class="st10" width="1.1" height="3.2"/>
							</g>
						</g>
					</g>
					<g id="XMLID_874_">
						<g id="XMLID_875_">
							<g id="XMLID_876_">
								<rect id="XMLID_877_" x="163.4" y="103.9" class="st10" width="1.1" height="3.2"/>
							</g>
						</g>
					</g>
					<g id="XMLID_870_">
						<g id="XMLID_871_">
							<g id="XMLID_872_">
								<rect id="XMLID_873_" x="163.4" y="108.6" class="st10" width="1.1" height="3.2"/>
							</g>
						</g>
					</g>
					<g id="XMLID_866_">
						<g id="XMLID_867_">
							<g id="XMLID_868_">
								<rect id="XMLID_869_" x="163.4" y="113.4" class="st10" width="1.1" height="3.2"/>
							</g>
						</g>
					</g>
					<g id="XMLID_862_">
						<g id="XMLID_863_">
							<g id="XMLID_864_">
								<rect id="XMLID_865_" x="163.4" y="118.2" class="st10" width="1.1" height="3.2"/>
							</g>
						</g>
					</g>
					<g id="XMLID_858_">
						<g id="XMLID_859_">
							<g id="XMLID_860_">
								<rect id="XMLID_861_" x="163.4" y="122.9" class="st10" width="1.1" height="3.2"/>
							</g>
						</g>
					</g>
				</g>
				<g id="XMLID_820_">
					<g id="XMLID_853_">
						<g id="XMLID_854_">
							<g id="XMLID_855_">
								<rect id="XMLID_856_" x="134.2" y="85.3" class="st10" width="1.1" height="3.1"/>
							</g>
						</g>
					</g>
					<g id="XMLID_849_">
						<g id="XMLID_850_">
							<g id="XMLID_851_">
								<rect id="XMLID_852_" x="134.2" y="90" class="st10" width="1.1" height="3.1"/>
							</g>
						</g>
					</g>
					<g id="XMLID_845_">
						<g id="XMLID_846_">
							<g id="XMLID_847_">
								<rect id="XMLID_848_" x="134.2" y="94.7" class="st10" width="1.1" height="3.1"/>
							</g>
						</g>
					</g>
					<g id="XMLID_841_">
						<g id="XMLID_842_">
							<g id="XMLID_843_">
								<rect id="XMLID_844_" x="134.2" y="99.4" class="st10" width="1.1" height="3.1"/>
							</g>
						</g>
					</g>
					<g id="XMLID_837_">
						<g id="XMLID_838_">
							<g id="XMLID_839_">
								<rect id="XMLID_840_" x="134.2" y="104.1" class="st10" width="1.1" height="3.1"/>
							</g>
						</g>
					</g>
					<g id="XMLID_833_">
						<g id="XMLID_834_">
							<g id="XMLID_835_">
								<rect id="XMLID_836_" x="134.2" y="108.8" class="st10" width="1.1" height="3.1"/>
							</g>
						</g>
					</g>
					<g id="XMLID_829_">
						<g id="XMLID_830_">
							<g id="XMLID_831_">
								<rect id="XMLID_832_" x="134.2" y="113.5" class="st10" width="1.1" height="3.1"/>
							</g>
						</g>
					</g>
					<g id="XMLID_825_">
						<g id="XMLID_826_">
							<g id="XMLID_827_">
								<rect id="XMLID_828_" x="134.2" y="118.3" class="st10" width="1.1" height="3.1"/>
							</g>
						</g>
					</g>
					<g id="XMLID_821_">
						<g id="XMLID_822_">
							<g id="XMLID_823_">
								<rect id="XMLID_824_" x="134.2" y="123" class="st10" width="1.1" height="3.1"/>
							</g>
						</g>
					</g>
				</g>
				<g id="XMLID_795_">
					<g id="XMLID_816_">
						<g id="XMLID_817_">
							<g id="XMLID_818_">
								<rect id="XMLID_819_" x="97.1" y="97.9" class="st10" width="1.1" height="3.3"/>
							</g>
						</g>
					</g>
					<g id="XMLID_812_">
						<g id="XMLID_813_">
							<g id="XMLID_814_">
								<rect id="XMLID_815_" x="97.1" y="102.9" class="st10" width="1.1" height="3.3"/>
							</g>
						</g>
					</g>
					<g id="XMLID_808_">
						<g id="XMLID_809_">
							<g id="XMLID_810_">
								<rect id="XMLID_811_" x="97.1" y="107.8" class="st10" width="1.1" height="3.3"/>
							</g>
						</g>
					</g>
					<g id="XMLID_804_">
						<g id="XMLID_805_">
							<g id="XMLID_806_">
								<rect id="XMLID_807_" x="97.1" y="112.8" class="st10" width="1.1" height="3.3"/>
							</g>
						</g>
					</g>
					<g id="XMLID_800_">
						<g id="XMLID_801_">
							<g id="XMLID_802_">
								<rect id="XMLID_803_" x="97.1" y="117.8" class="st10" width="1.1" height="3.3"/>
							</g>
						</g>
					</g>
					<g id="XMLID_796_">
						<g id="XMLID_797_">
							<g id="XMLID_798_">
								<rect id="XMLID_799_" x="97.1" y="122.8" class="st10" width="1.1" height="3.3"/>
							</g>
						</g>
					</g>
				</g>
				<g id="XMLID_778_">
					<g id="XMLID_791_">
						<g id="XMLID_792_">
							<g id="XMLID_793_">
								<rect id="XMLID_794_" x="113.7" y="110.7" class="st10" width="1.1" height="2.8"/>
							</g>
						</g>
					</g>
					<g id="XMLID_787_">
						<g id="XMLID_788_">
							<g id="XMLID_789_">
								<rect id="XMLID_790_" x="113.7" y="114.9" class="st10" width="1.1" height="2.8"/>
							</g>
						</g>
					</g>
					<g id="XMLID_783_">
						<g id="XMLID_784_">
							<g id="XMLID_785_">
								<rect id="XMLID_786_" x="113.7" y="119.1" class="st10" width="1.1" height="2.8"/>
							</g>
						</g>
					</g>
					<g id="XMLID_779_">
						<g id="XMLID_780_">
							<g id="XMLID_781_">
								<rect id="XMLID_782_" x="113.7" y="123.3" class="st10" width="1.1" height="2.8"/>
							</g>
						</g>
					</g>
				</g>
				<g id="XMLID_774_">
					<g id="XMLID_775_">
						<g id="XMLID_776_">
							<rect id="XMLID_777_" x="78" y="122.1" class="st10" width="1.1" height="4"/>
						</g>
					</g>
				</g>
			</g>
		</g>
	</g>
</g>
</svg>
