<?xml version="1.0" encoding="utf-8"?>
<!-- Generator: Adobe Illustrator 19.0.0, SVG Export Plug-In . SVG Version: 6.00 Build 0)  -->
<svg version="1.1" id="Layer_1" xmlns="http://www.w3.org/2000/svg" xmlns:xlink="http://www.w3.org/1999/xlink" x="0px" y="0px"
	 viewBox="-359 191 240 180" style="enable-background:new -359 191 240 180;" xml:space="preserve">
<style type="text/css">
	.st0{fill:none;}
	.st1{fill:#0F303F;}
	.st2{fill:#FFFFFF;}
</style>
<g id="XMLID_263_">
	<rect id="XMLID_291_" x="-359" y="191" class="st0" width="240" height="180"/>
	<g id="XMLID_264_">
		<g id="XMLID_265_">
			<g id="XMLID_266_">
				<g id="XMLID_280_">
					<g id="XMLID_289_">
						<path id="XMLID_290_" class="st1" d="M-184.9,211h-108.2c-12.7,0-23,10.3-23,23v10.2V328c0,12.7,10.3,23,23,23H-185
							c12.7,0,23-10.3,23-23v-83.7V234C-161.9,221.3-172.2,211-184.9,211z"/>
					</g>
					<g id="XMLID_287_">
						<path id="XMLID_288_" class="st2" d="M-189.3,228.6c3.4,0,6.3-2.5,6.7-5.9c0-0.3,0.1-0.6,0.1-1c0-0.1,0-0.3,0-0.4
							c-0.2-3.6-3.2-6.4-6.8-6.4s-6.5,2.8-6.8,6.2c0,0.2,0,0.4,0,0.6s0,0.5,0,0.7C-195.7,225.9-192.8,228.6-189.3,228.6z"/>
					</g>
					<g id="XMLID_285_">
						<path id="XMLID_286_" class="st2" d="M-206.9,228.6c3.5,0,6.4-2.7,6.8-6.1c0-0.2,0-0.5,0-0.7c0-0.2,0-0.4,0-0.6
							c-0.3-3.5-3.2-6.2-6.8-6.2s-6.5,2.8-6.8,6.2c0,0.2,0,0.4,0,0.6c0,0.2,0,0.5,0,0.7C-213.4,225.9-210.5,228.6-206.9,228.6z"/>
					</g>
					<g id="XMLID_283_">
						<path id="XMLID_284_" class="st2" d="M-293.1,232.7H-185c6.4,0,11.5,5.2,11.5,11.5V328c0,6.3-5.2,11.5-11.5,11.5h-108.1
							c-6.4,0-11.5-5.2-11.5-11.5v-83.7C-304.6,237.9-299.4,232.7-293.1,232.7z"/>
					</g>
					<g id="XMLID_281_">
						<path id="XMLID_282_" class="st2" d="M-224.6,228.6c3.5,0,6.4-2.7,6.8-6.1c0-0.2,0-0.5,0-0.7c0-0.2,0-0.4,0-0.6
							c-0.3-3.5-3.2-6.2-6.8-6.2s-6.5,2.8-6.8,6.2c0,0.2,0,0.4,0,0.6c0,0.2,0,0.5,0,0.7C-231.1,225.9-228.1,228.6-224.6,228.6z"/>
					</g>
				</g>
				<g id="XMLID_267_">
					<g id="XMLID_278_">
						<polygon id="XMLID_279_" class="st1" points="-250.8,320.9 -221,254.1 -227.2,251.3 -257,318.1 						"/>
					</g>
					<g id="XMLID_273_">
						<g id="XMLID_276_">
							<polygon id="XMLID_277_" class="st1" points="-263.6,267.5 -286.9,290.9 -291.8,286.1 -268.4,262.7 							"/>
						</g>
						<g id="XMLID_274_">
							
								<rect id="XMLID_275_" x="-294.2" y="292" transform="matrix(-0.7071 -0.7071 0.7071 -0.7071 -682.8567 307.9623)" class="st1" width="33.1" height="6.8"/>
						</g>
					</g>
					<g id="XMLID_268_">
						<g id="XMLID_271_">
							<polygon id="XMLID_272_" class="st1" points="-214.5,267.5 -191.1,290.9 -186.2,286.1 -209.6,262.7 							"/>
						</g>
						<g id="XMLID_269_">
							<polygon id="XMLID_270_" class="st1" points="-209.6,309.5 -186.2,286.1 -191.1,281.3 -214.5,304.7 							"/>
						</g>
					</g>
				</g>
			</g>
		</g>
	</g>
</g>
</svg>
