<?xml version="1.0" encoding="utf-8"?>
<!-- Generator: Adobe Illustrator 19.0.0, SVG Export Plug-In . SVG Version: 6.00 Build 0)  -->
<svg version="1.1" id="Layer_1" xmlns="http://www.w3.org/2000/svg" xmlns:xlink="http://www.w3.org/1999/xlink" x="0px" y="0px"
	 viewBox="0 0 240 180" style="enable-background:new 0 0 240 180;" xml:space="preserve">
<style type="text/css">
	.st0{fill:#FFFDB3;}
	.st1{fill:#0F303F;}
	.st2{fill:#F7F7F7;}
	.st3{fill:#FFFFFF;}
	.st4{fill:#E3E3E3;}
	.st5{fill:#193640;}
	.st6{fill:#184F78;}
	.st7{fill:#A1B400;}
	.st8{fill:#FFC908;}
	.st9{fill:#DE3F19;}
	.st10{fill:#F09518;}
</style>
<g id="XMLID_603_">
	<rect id="XMLID_644_" x="0" y="0" class="st0" width="240" height="180"/>
	<g id="XMLID_604_">
		<g id="XMLID_627_">
			<g id="XMLID_628_">
				<g id="XMLID_632_">
					<g id="XMLID_633_">
						<g id="XMLID_634_">
							<g id="XMLID_642_">
								<path id="XMLID_643_" class="st1" d="M166.2,20H58.1c-12.7,0-23,10.3-23,23v10.2V137c0,12.7,10.3,23,23,23h108.1
									c12.7,0,23-10.3,23-23V53.2V43C189.2,30.3,178.9,20,166.2,20z"/>
							</g>
							<g id="XMLID_640_">
								<path id="XMLID_641_" class="st2" d="M161.9,37.6c3.4,0,6.3-2.5,6.7-5.9c0-0.3,0.1-0.6,0.1-1c0-0.2,0-0.3,0-0.5
									c-0.2-3.6-3.2-6.4-6.8-6.4c-3.6,0-6.5,2.8-6.8,6.2c0,0.2,0,0.4,0,0.6c0,0.2,0,0.5,0,0.7C155.4,34.9,158.3,37.6,161.9,37.6z"
									/>
							</g>
							<g id="XMLID_638_">
								<path id="XMLID_639_" class="st2" d="M144.2,37.6c3.5,0,6.4-2.7,6.8-6.1c0-0.2,0-0.5,0-0.7c0-0.2,0-0.4,0-0.6
									c-0.3-3.5-3.2-6.2-6.8-6.2c-3.6,0-6.5,2.8-6.8,6.2c0,0.2,0,0.4,0,0.6c0,0.2,0,0.5,0,0.7C137.7,34.9,140.7,37.6,144.2,37.6z"
									/>
							</g>
							<path id="XMLID_637_" class="st3" d="M58.1,41.7h108.1c6.4,0,11.5,5.2,11.5,11.5V137c0,6.4-5.2,11.5-11.5,11.5H58.1
								c-6.4,0-11.5-5.2-11.5-11.5V53.2C46.5,46.9,51.7,41.7,58.1,41.7z"/>
							<g id="XMLID_635_">
								<path id="XMLID_636_" class="st2" d="M126.5,37.6c3.5,0,6.4-2.7,6.8-6.1c0-0.2,0-0.5,0-0.7c0-0.2,0-0.4,0-0.6
									c-0.3-3.5-3.2-6.2-6.8-6.2c-3.6,0-6.5,2.8-6.8,6.2c0,0.2,0,0.4,0,0.6c0,0.2,0,0.5,0,0.7C120.1,34.9,123,37.6,126.5,37.6z"/>
							</g>
						</g>
					</g>
				</g>
				<g id="XMLID_629_">
					<path id="XMLID_631_" class="st4" d="M138.5,140l1.6-9.3l-10.2-1.8c0.1-1.4,0.2-2.9,0.2-4.4c0-1.5-0.1-3-0.2-4.4l10.2-1.8
						l-1.6-9.3l-10.2,1.8c-0.8-2.9-1.8-5.6-3-8.3l9-5.2l-4.7-8.2l-9,5.2c-1.7-2.4-3.6-4.7-5.7-6.8l6.7-8l-7.2-6.1l-6.7,8
						c-2.4-1.7-4.9-3.1-7.6-4.4l3.6-9.8l-8.9-3.2l-3.6,9.8c-2.8-0.7-5.7-1.2-8.7-1.5V62h-9.4v10.4c-3,0.3-5.9,0.8-8.7,1.5l-3.6-9.8
						L52,67.4l3.6,9.8c-1.2,0.6-2.5,1.2-3.6,1.9v23.6c0.2-0.3,0.5-0.6,0.7-0.8c2.1-2.3,4.5-4.4,7.2-6c0.7-0.4,1.4-0.8,2.1-1.2
						c2.8-1.5,5.7-2.6,8.9-3.2c0.8-0.2,1.6-0.3,2.3-0.4c1.5-0.2,3.1-0.3,4.7-0.3s3.2,0.1,4.7,0.3c0.8,0.1,1.6,0.2,2.3,0.4
						c3.1,0.7,6.1,1.8,8.9,3.2c0.7,0.4,1.4,0.8,2.1,1.2c2.7,1.7,5.1,3.7,7.2,6c0.5,0.6,1,1.2,1.5,1.8c1.9,2.5,3.5,5.2,4.7,8.2
						c0.3,0.7,0.6,1.5,0.8,2.2c1,2.9,1.5,6.1,1.6,9.3c0,0.4,0,0.8,0,1.2c0,0.4,0,0.8,0,1.2c-0.1,3.2-0.7,6.3-1.6,9.3
						c-0.2,0.7-0.5,1.5-0.8,2.2c-0.8,2.1-1.9,4.1-3.1,5.9h20.6c0.6-1.6,1.2-3.3,1.6-4.9L138.5,140z"/>
					<path id="XMLID_630_" class="st4" d="M172.3,68c-1.1,1.4-2.4,2.6-3.9,3.6c-0.3,0.2-0.6,0.4-0.9,0.5c-2.1,1.1-4.5,1.7-7,1.7
						c-2.5,0-4.9-0.6-7-1.7c-0.3-0.2-0.6-0.4-0.9-0.5c-4.1-2.6-6.8-7-7-12.1c0-0.2,0-0.4,0-0.5s0-0.4,0-0.5
						c0.2-4.6,2.4-8.6,5.8-11.3H136c-0.9,2.8,0.2,5.9,2.9,7.4l0.1,0.1c-0.3,1.4-0.4,2.9-0.4,4.3c0,1.5,0.1,2.9,0.4,4.3l-0.1,0
						c-3,1.7-4.1,5.6-2.3,8.7l0.7,1.1c1.7,3,5.6,4.1,8.6,2.3l0.1-0.1c2.2,1.9,4.7,3.4,7.5,4.4v0.1c0,3.5,2.9,6.3,6.3,6.3h1.3
						c3.5,0,6.3-2.9,6.3-6.3v-0.1c1.7-0.6,3.4-1.4,4.8-2.3V68z"/>
				</g>
			</g>
		</g>
		<g id="XMLID_605_">
			<g id="XMLID_606_">
				<g id="XMLID_622_">
					<g id="XMLID_623_">
						<path id="XMLID_624_" class="st5" d="M200.8,85c-5.8-3.7-24.5,4-28.5-1.6c-3.8-5.4-3.3-21.4-17.9-20.1
							c-9.9,0.9-15.2,12.5-17.8,21.5c-6.6,23.1-4.5,37.9,22.3,54.2c12.6,7.7,43.5-0.1,52.2-15C214.9,117.3,222.2,98.8,200.8,85z
							 M177.8,98.7c-0.7,1.6-5.3,2.7-8.4,2c-8.8-2-9.5-11.8,2.8-10.2C175.7,90.9,179.6,94.6,177.8,98.7z"/>
					</g>
				</g>
				<g id="XMLID_619_">
					<g id="XMLID_620_">
						<path id="XMLID_621_" class="st6" d="M206.7,101.4c0,4.2-3.4,7.6-7.6,7.6c-4.2,0-7.6-3.4-7.6-7.6c0-4.2,3.4-7.6,7.6-7.6
							C203.3,93.8,206.7,97.2,206.7,101.4z"/>
					</g>
				</g>
				<g id="XMLID_616_">
					<g id="XMLID_617_">
						<circle id="XMLID_618_" class="st7" cx="187.9" cy="121.8" r="9.3"/>
					</g>
				</g>
				<g id="XMLID_613_">
					<g id="XMLID_614_">
						<path id="XMLID_615_" class="st8" d="M172.3,122.5c0,3.8-3.1,6.8-6.8,6.8c-3.8,0-6.8-3.1-6.8-6.8c0-3.8,3.1-6.8,6.8-6.8
							C169.3,115.6,172.3,118.7,172.3,122.5z"/>
					</g>
				</g>
				<g id="XMLID_610_">
					<g id="XMLID_611_">
						<path id="XMLID_612_" class="st9" d="M156.7,109.2c0,3.6-2.9,6.5-6.5,6.5c-3.6,0-6.5-2.9-6.5-6.5c0-3.6,2.9-6.5,6.5-6.5
							C153.8,102.7,156.7,105.6,156.7,109.2z"/>
					</g>
				</g>
				<g id="XMLID_607_">
					<g id="XMLID_608_">
						<path id="XMLID_609_" class="st10" d="M151.3,92.8c0,2.6-2.1,4.7-4.7,4.7c-2.6,0-4.7-2.1-4.7-4.7c0-2.6,2.1-4.7,4.7-4.7
							C149.2,88.1,151.3,90.2,151.3,92.8z"/>
					</g>
				</g>
			</g>
		</g>
	</g>
</g>
</svg>
