<?xml version="1.0" encoding="utf-8"?>
<!-- Generator: Adobe Illustrator 19.0.0, SVG Export Plug-In . SVG Version: 6.00 Build 0)  -->
<svg version="1.1" id="Layer_1" xmlns="http://www.w3.org/2000/svg" xmlns:xlink="http://www.w3.org/1999/xlink" x="0px" y="0px"
	 viewBox="0 0 240 180" style="enable-background:new 0 0 240 180;" xml:space="preserve">
<style type="text/css">
	.st0{fill:#FFFDB3;}
	.st1{fill:#0F303F;}
	.st2{fill:#FFFFFF;}
</style>
<g id="XMLID_263_">
	<rect id="XMLID_291_" x="0" y="0" class="st0" width="240" height="180"/>
	<g id="XMLID_264_">
		<g id="XMLID_265_">
			<g id="XMLID_266_">
				<g id="XMLID_280_">
					<g id="XMLID_289_">
						<path id="XMLID_290_" class="st1" d="M174.1,20H65.9c-12.7,0-23,10.3-23,23v10.2V137c0,12.7,10.3,23,23,23h108.1
							c12.7,0,23-10.3,23-23V53.3V43C197.1,30.3,186.8,20,174.1,20z"/>
					</g>
					<g id="XMLID_287_">
						<path id="XMLID_288_" class="st2" d="M169.7,37.6c3.4,0,6.3-2.5,6.7-5.9c0-0.3,0.1-0.6,0.1-1c0-0.1,0-0.3,0-0.4
							c-0.2-3.6-3.2-6.4-6.8-6.4c-3.6,0-6.5,2.8-6.8,6.2c0,0.2,0,0.4,0,0.6c0,0.2,0,0.5,0,0.7C163.3,34.9,166.2,37.6,169.7,37.6z"/>
					</g>
					<g id="XMLID_285_">
						<path id="XMLID_286_" class="st2" d="M152.1,37.6c3.5,0,6.4-2.7,6.8-6.1c0-0.2,0-0.5,0-0.7c0-0.2,0-0.4,0-0.6
							c-0.3-3.5-3.2-6.2-6.8-6.2c-3.6,0-6.5,2.8-6.8,6.2c0,0.2,0,0.4,0,0.6c0,0.2,0,0.5,0,0.7C145.6,34.9,148.5,37.6,152.1,37.6z"/>
					</g>
					<g id="XMLID_283_">
						<path id="XMLID_284_" class="st2" d="M65.9,41.7h108.1c6.4,0,11.5,5.2,11.5,11.5V137c0,6.3-5.2,11.5-11.5,11.5H65.9
							c-6.4,0-11.5-5.2-11.5-11.5V53.3C54.4,46.9,59.6,41.7,65.9,41.7z"/>
					</g>
					<g id="XMLID_281_">
						<path id="XMLID_282_" class="st2" d="M134.4,37.6c3.5,0,6.4-2.7,6.8-6.1c0-0.2,0-0.5,0-0.7c0-0.2,0-0.4,0-0.6
							c-0.3-3.5-3.2-6.2-6.8-6.2c-3.6,0-6.5,2.8-6.8,6.2c0,0.2,0,0.4,0,0.6c0,0.2,0,0.5,0,0.7C127.9,34.9,130.9,37.6,134.4,37.6z"/>
					</g>
				</g>
				<g id="XMLID_267_">
					<g id="XMLID_278_">
						<polygon id="XMLID_279_" class="st1" points="108.2,129.9 138,63.1 131.8,60.3 102,127.1 						"/>
					</g>
					<g id="XMLID_273_">
						<g id="XMLID_276_">
							<polygon id="XMLID_277_" class="st1" points="95.4,76.5 72.1,99.9 67.2,95.1 90.6,71.7 							"/>
						</g>
						<g id="XMLID_274_">
							
								<rect id="XMLID_275_" x="64.8" y="101" transform="matrix(0.7071 0.7071 -0.7071 0.7071 97.6514 -26.9384)" class="st1" width="33.1" height="6.8"/>
						</g>
					</g>
					<g id="XMLID_268_">
						<g id="XMLID_271_">
							<polygon id="XMLID_272_" class="st1" points="144.5,76.5 167.9,99.9 172.8,95.1 149.4,71.7 							"/>
						</g>
						<g id="XMLID_269_">
							<polygon id="XMLID_270_" class="st1" points="149.4,118.5 172.8,95.1 167.9,90.3 144.5,113.7 							"/>
						</g>
					</g>
				</g>
			</g>
		</g>
	</g>
</g>
</svg>
