<?xml version="1.0" encoding="utf-8"?>
<!-- Generator: Adobe Illustrator 19.0.0, SVG Export Plug-In . SVG Version: 6.00 Build 0)  -->
<svg version="1.1" id="Layer_1" xmlns="http://www.w3.org/2000/svg" xmlns:xlink="http://www.w3.org/1999/xlink" x="0px" y="0px"
	 viewBox="-359 191 240 180" style="enable-background:new -359 191 240 180;" xml:space="preserve">
<style type="text/css">
	.st0{fill:none;}
	.st1{fill:#0F303F;}
	.st2{fill:#F7F7F7;}
	.st3{fill:#FFFFFF;}
	.st4{fill:#E3E3E3;}
	.st5{fill:#193640;}
	.st6{fill:#184F78;}
	.st7{fill:#A1B400;}
	.st8{fill:#FFC908;}
	.st9{fill:#DE3F19;}
	.st10{fill:#F09518;}
</style>
<g id="XMLID_603_">
	<rect id="XMLID_644_" x="-359" y="191" class="st0" width="240" height="180"/>
	<g id="XMLID_604_">
		<g id="XMLID_627_">
			<g id="XMLID_628_">
				<g id="XMLID_632_">
					<g id="XMLID_633_">
						<g id="XMLID_634_">
							<g id="XMLID_642_">
								<path id="XMLID_643_" class="st1" d="M-192.8,211h-108.1c-12.7,0-23,10.3-23,23v10.2V328c0,12.7,10.3,23,23,23h108.1
									c12.7,0,23-10.3,23-23v-83.8V234C-169.8,221.3-180.1,211-192.8,211z"/>
							</g>
							<g id="XMLID_640_">
								<path id="XMLID_641_" class="st2" d="M-197.1,228.6c3.4,0,6.3-2.5,6.7-5.9c0-0.3,0.1-0.6,0.1-1c0-0.2,0-0.3,0-0.5
									c-0.2-3.6-3.2-6.4-6.8-6.4s-6.5,2.8-6.8,6.2c0,0.2,0,0.4,0,0.6c0,0.2,0,0.5,0,0.7C-203.6,225.9-200.7,228.6-197.1,228.6z"/>
							</g>
							<g id="XMLID_638_">
								<path id="XMLID_639_" class="st2" d="M-214.8,228.6c3.5,0,6.4-2.7,6.8-6.1c0-0.2,0-0.5,0-0.7c0-0.2,0-0.4,0-0.6
									c-0.3-3.5-3.2-6.2-6.8-6.2s-6.5,2.8-6.8,6.2c0,0.2,0,0.4,0,0.6c0,0.2,0,0.5,0,0.7C-221.3,225.9-218.3,228.6-214.8,228.6z"/>
							</g>
							<path id="XMLID_637_" class="st3" d="M-300.9,232.7h108.1c6.4,0,11.5,5.2,11.5,11.5V328c0,6.4-5.2,11.5-11.5,11.5h-108.1
								c-6.4,0-11.5-5.2-11.5-11.5v-83.8C-312.5,237.9-307.3,232.7-300.9,232.7z"/>
							<g id="XMLID_635_">
								<path id="XMLID_636_" class="st2" d="M-232.5,228.6c3.5,0,6.4-2.7,6.8-6.1c0-0.2,0-0.5,0-0.7c0-0.2,0-0.4,0-0.6
									c-0.3-3.5-3.2-6.2-6.8-6.2s-6.5,2.8-6.8,6.2c0,0.2,0,0.4,0,0.6c0,0.2,0,0.5,0,0.7C-238.9,225.9-236,228.6-232.5,228.6z"/>
							</g>
						</g>
					</g>
				</g>
				<g id="XMLID_629_">
					<path id="XMLID_631_" class="st4" d="M-220.5,331l1.6-9.3l-10.2-1.8c0.1-1.4,0.2-2.9,0.2-4.4s-0.1-3-0.2-4.4l10.2-1.8l-1.6-9.3
						l-10.2,1.8c-0.8-2.9-1.8-5.6-3-8.3l9-5.2l-4.7-8.2l-9,5.2c-1.7-2.4-3.6-4.7-5.7-6.8l6.7-8l-7.2-6.1l-6.7,8
						c-2.4-1.7-4.9-3.1-7.6-4.4l3.6-9.8l-8.9-3.2l-3.6,9.8c-2.8-0.7-5.7-1.2-8.7-1.5V253h-9.4v10.4c-3,0.3-5.9,0.8-8.7,1.5l-3.6-9.8
						l-8.8,3.3l3.6,9.8c-1.2,0.6-2.5,1.2-3.6,1.9v23.6c0.2-0.3,0.5-0.6,0.7-0.8c2.1-2.3,4.5-4.4,7.2-6c0.7-0.4,1.4-0.8,2.1-1.2
						c2.8-1.5,5.7-2.6,8.9-3.2c0.8-0.2,1.6-0.3,2.3-0.4c1.5-0.2,3.1-0.3,4.7-0.3s3.2,0.1,4.7,0.3c0.8,0.1,1.6,0.2,2.3,0.4
						c3.1,0.7,6.1,1.8,8.9,3.2c0.7,0.4,1.4,0.8,2.1,1.2c2.7,1.7,5.1,3.7,7.2,6c0.5,0.6,1,1.2,1.5,1.8c1.9,2.5,3.5,5.2,4.7,8.2
						c0.3,0.7,0.6,1.5,0.8,2.2c1,2.9,1.5,6.1,1.6,9.3c0,0.4,0,0.8,0,1.2s0,0.8,0,1.2c-0.1,3.2-0.7,6.3-1.6,9.3
						c-0.2,0.7-0.5,1.5-0.8,2.2c-0.8,2.1-1.9,4.1-3.1,5.9h20.6c0.6-1.6,1.2-3.3,1.6-4.9L-220.5,331z"/>
					<path id="XMLID_630_" class="st4" d="M-186.7,259c-1.1,1.4-2.4,2.6-3.9,3.6c-0.3,0.2-0.6,0.4-0.9,0.5c-2.1,1.1-4.5,1.7-7,1.7
						s-4.9-0.6-7-1.7c-0.3-0.2-0.6-0.4-0.9-0.5c-4.1-2.6-6.8-7-7-12.1c0-0.2,0-0.4,0-0.5s0-0.4,0-0.5c0.2-4.6,2.4-8.6,5.8-11.3H-223
						c-0.9,2.8,0.2,5.9,2.9,7.4l0.1,0.1c-0.3,1.4-0.4,2.9-0.4,4.3c0,1.5,0.1,2.9,0.4,4.3h-0.1c-3,1.7-4.1,5.6-2.3,8.7l0.7,1.1
						c1.7,3,5.6,4.1,8.6,2.3l0.1-0.1c2.2,1.9,4.7,3.4,7.5,4.4v0.1c0,3.5,2.9,6.3,6.3,6.3h1.3c3.5,0,6.3-2.9,6.3-6.3v-0.1
						c1.7-0.6,3.4-1.4,4.8-2.3L-186.7,259L-186.7,259z"/>
				</g>
			</g>
		</g>
		<g id="XMLID_605_">
			<g id="XMLID_606_">
				<g id="XMLID_622_">
					<g id="XMLID_623_">
						<path id="XMLID_624_" class="st5" d="M-158.2,276c-5.8-3.7-24.5,4-28.5-1.6c-3.8-5.4-3.3-21.4-17.9-20.1
							c-9.9,0.9-15.2,12.5-17.8,21.5c-6.6,23.1-4.5,37.9,22.3,54.2c12.6,7.7,43.5-0.1,52.2-15C-144.1,308.3-136.8,289.8-158.2,276z
							 M-181.2,289.7c-0.7,1.6-5.3,2.7-8.4,2c-8.8-2-9.5-11.8,2.8-10.2C-183.3,281.9-179.4,285.6-181.2,289.7z"/>
					</g>
				</g>
				<g id="XMLID_619_">
					<g id="XMLID_620_">
						<path id="XMLID_621_" class="st6" d="M-152.3,292.4c0,4.2-3.4,7.6-7.6,7.6c-4.2,0-7.6-3.4-7.6-7.6c0-4.2,3.4-7.6,7.6-7.6
							S-152.3,288.2-152.3,292.4z"/>
					</g>
				</g>
				<g id="XMLID_616_">
					<g id="XMLID_617_">
						<circle id="XMLID_618_" class="st7" cx="-171.1" cy="312.8" r="9.3"/>
					</g>
				</g>
				<g id="XMLID_613_">
					<g id="XMLID_614_">
						<path id="XMLID_615_" class="st8" d="M-186.7,313.5c0,3.8-3.1,6.8-6.8,6.8c-3.8,0-6.8-3.1-6.8-6.8c0-3.8,3.1-6.8,6.8-6.8
							C-189.7,306.6-186.7,309.7-186.7,313.5z"/>
					</g>
				</g>
				<g id="XMLID_610_">
					<g id="XMLID_611_">
						<path id="XMLID_612_" class="st9" d="M-202.3,300.2c0,3.6-2.9,6.5-6.5,6.5s-6.5-2.9-6.5-6.5c0-3.6,2.9-6.5,6.5-6.5
							S-202.3,296.6-202.3,300.2z"/>
					</g>
				</g>
				<g id="XMLID_607_">
					<g id="XMLID_608_">
						<path id="XMLID_609_" class="st10" d="M-207.7,283.8c0,2.6-2.1,4.7-4.7,4.7c-2.6,0-4.7-2.1-4.7-4.7c0-2.6,2.1-4.7,4.7-4.7
							S-207.7,281.2-207.7,283.8z"/>
					</g>
				</g>
			</g>
		</g>
	</g>
</g>
</svg>
